REM DIRINDEX 1\2\6,1\2\7,1\2\8,1\2\9,1\3\10,1\3\11,1\4\12,1\4\13,1\4\14,1\5\15,1\5\16,1\5\17
REM DIRNAME folder01,folder02,folder03,folder04,folder05,folder06,folder07,folder08,folder09,folder10,folder11,folder12,folder13,folder14,folder15,folder16,folder17
TITLE ""
FILE "1400_2_sec13_1216_1232.mp3" MP3
  TRACK 01 AUDIO
    TITLE "0:"
    INDEX 01 00:00:00
  TRACK 02 AUDIO
    TITLE "13:cjc029_4049"
    INDEX 01 00:00:19
  TRACK 03 AUDIO
    TITLE "0:"
    INDEX 01 00:01:38
  TRACK 04 AUDIO
    TITLE "14:cjc029_4050"
    INDEX 01 00:01:40
  TRACK 05 AUDIO
    TITLE "0:"
    INDEX 01 00:04:29
  TRACK 06 AUDIO
    TITLE "13:cjc029_4051"
    INDEX 01 00:05:14
  TRACK 07 AUDIO
    TITLE "0:"
    INDEX 01 00:06:47
  TRACK 08 AUDIO
    TITLE "14:cjc029_4052"
    INDEX 01 00:06:51
  TRACK 09 AUDIO
    TITLE "0:"
    INDEX 01 00:08:05
  TRACK 10 AUDIO
    TITLE "13:cjc029_4053"
    INDEX 01 00:08:64
  TRACK 11 AUDIO
    TITLE "0:"
    INDEX 01 00:10:10
  TRACK 12 AUDIO
    TITLE "14:cjc029_4054"
    INDEX 01 00:10:19
  TRACK 13 AUDIO
    TITLE "0:"
    INDEX 01 00:11:48
  TRACK 14 AUDIO
    TITLE "13:cjc029_4055"
    INDEX 01 00:12:26
  TRACK 15 AUDIO
    TITLE "0:"
    INDEX 01 00:13:45
  TRACK 16 AUDIO
    TITLE "14:cjc029_4056"
    INDEX 01 00:13:47
  TRACK 17 AUDIO
    TITLE "0:"
    INDEX 01 00:14:58
  TRACK 18 AUDIO
    TITLE "13:cjc029_4057"
    INDEX 01 00:15:38
  TRACK 19 AUDIO
    TITLE "0:"
    INDEX 01 00:16:49
  TRACK 20 AUDIO
    TITLE "14:cjc029_4058"
    INDEX 01 00:16:55
  TRACK 21 AUDIO
    TITLE "0:"
    INDEX 01 00:19:40
  TRACK 22 AUDIO
    TITLE "13:cjc029_4059"
    INDEX 01 00:20:22
  TRACK 23 AUDIO
    TITLE "0:"
    INDEX 01 00:21:39
  TRACK 24 AUDIO
    TITLE "14:cjc029_4060"
    INDEX 01 00:21:41
  TRACK 25 AUDIO
    TITLE "0:"
    INDEX 01 00:24:16
  TRACK 26 AUDIO
    TITLE "13:cjc029_4061"
    INDEX 01 00:24:74
  TRACK 27 AUDIO
    TITLE "0:"
    INDEX 01 00:26:18
  TRACK 28 AUDIO
    TITLE "14:cjc029_4062"
    INDEX 01 00:26:22
  TRACK 29 AUDIO
    TITLE "0:"
    INDEX 01 00:33:52
  TRACK 30 AUDIO
    TITLE "13:cjc029_4063"
    INDEX 01 00:34:34
  TRACK 31 AUDIO
    TITLE "0:"
    INDEX 01 00:35:64
  TRACK 32 AUDIO
    TITLE "14:cjc029_4064"
    INDEX 01 00:35:68
  TRACK 33 AUDIO
    TITLE "0:"
    INDEX 01 00:37:14
  TRACK 34 AUDIO
    TITLE "13:cjc029_4065"
    INDEX 01 00:37:69
  TRACK 35 AUDIO
    TITLE "0:"
    INDEX 01 00:39:07
  TRACK 36 AUDIO
    TITLE "14:cjc029_4066"
    INDEX 01 00:39:13
  TRACK 37 AUDIO
    TITLE "0:"
    INDEX 01 00:41:67
  TRACK 38 AUDIO
    TITLE "13:cjc029_4067"
    INDEX 01 00:42:47
  TRACK 39 AUDIO
    TITLE "0:"
    INDEX 01 00:43:66
  TRACK 40 AUDIO
    TITLE "14:cjc029_4068"
    INDEX 01 00:43:68
  TRACK 41 AUDIO
    TITLE "0:"
    INDEX 01 00:46:56
  TRACK 42 AUDIO
    TITLE "13:cjc029_4069"
    INDEX 01 00:47:38
  TRACK 43 AUDIO
    TITLE "0:"
    INDEX 01 00:48:44
  TRACK 44 AUDIO
    TITLE "14:cjc029_4070"
    INDEX 01 00:48:51
  TRACK 45 AUDIO
    TITLE "0:"
    INDEX 01 00:49:74
  TRACK 46 AUDIO
    TITLE "13:cjc029_4071"
    INDEX 01 00:50:56
  TRACK 47 AUDIO
    TITLE "0:"
    INDEX 01 00:51:58
  TRACK 48 AUDIO
    TITLE "14:cjc029_4072"
    INDEX 01 00:51:63
  TRACK 49 AUDIO
    TITLE "0:"
    INDEX 01 00:53:00
  TRACK 50 AUDIO
    TITLE "13:cjc029_4073"
    INDEX 01 00:53:57
  TRACK 51 AUDIO
    TITLE "0:"
    INDEX 01 00:54:68
  TRACK 52 AUDIO
    TITLE "14:cjc029_4074"
    INDEX 01 00:54:72
  TRACK 53 AUDIO
    TITLE "0:"
    INDEX 01 00:56:18
  TRACK 54 AUDIO
    TITLE "13:cjc029_4075"
    INDEX 01 00:56:74
  TRACK 55 AUDIO
    TITLE "0:"
    INDEX 01 00:58:22
  TRACK 56 AUDIO
    TITLE "14:cjc029_4076"
    INDEX 01 00:58:26
  TRACK 57 AUDIO
    TITLE "0:"
    INDEX 01 01:02:46
  TRACK 58 AUDIO
    TITLE "13:cjc029_4077"
    INDEX 01 01:03:29
  TRACK 59 AUDIO
    TITLE "0:"
    INDEX 01 01:04:37
  TRACK 60 AUDIO
    TITLE "14:cjc029_4078"
    INDEX 01 01:04:41
  TRACK 61 AUDIO
    TITLE "0:"
    INDEX 01 01:05:54
  TRACK 62 AUDIO
    TITLE "13:cjc029_4079"
    INDEX 01 01:06:36
  TRACK 63 AUDIO
    TITLE "0:"
    INDEX 01 01:07:39
  TRACK 64 AUDIO
    TITLE "14:cjc029_4080"
    INDEX 01 01:07:43
  TRACK 65 AUDIO
    TITLE "0:"
    INDEX 01 01:09:05
  TRACK 66 AUDIO
    TITLE "13:cjc029_4081"
    INDEX 01 01:09:61
  TRACK 67 AUDIO
    TITLE "0:"
    INDEX 01 01:10:67
  TRACK 68 AUDIO
    TITLE "14:cjc029_4082"
    INDEX 01 01:10:73
  TRACK 69 AUDIO
    TITLE "0:"
    INDEX 01 01:13:38
